<?xml version="1.0" encoding="UTF-8" standalone="no"?>
<!-- Created with Inkscape (http://www.inkscape.org/) -->

<svg
   xmlns:dc="http://purl.org/dc/elements/1.1/"
   xmlns:cc="http://creativecommons.org/ns#"
   xmlns:rdf="http://www.w3.org/1999/02/22-rdf-syntax-ns#"
   xmlns:svg="http://www.w3.org/2000/svg"
   xmlns="http://www.w3.org/2000/svg"
   xmlns:sodipodi="http://sodipodi.sourceforge.net/DTD/sodipodi-0.dtd"
   xmlns:inkscape="http://www.inkscape.org/namespaces/inkscape"
   width="146.14603mm"
   height="99.424263mm"
   viewBox="0 0 146.14603 99.424263"
   version="1.1"
   id="svg847"
   inkscape:version="0.92.4 5da689c313, 2019-01-14"
   sodipodi:docname="boom.svg">
  <defs
     id="defs841" />
  <sodipodi:namedview
     id="base"
     pagecolor="#ffffff"
     bordercolor="#666666"
     borderopacity="1.0"
     inkscape:pageopacity="0.0"
     inkscape:pageshadow="2"
     inkscape:zoom="0.98994949"
     inkscape:cx="329.90232"
     inkscape:cy="222.75599"
     inkscape:document-units="mm"
     inkscape:current-layer="layer1"
     showgrid="false"
     fit-margin-top="0"
     fit-margin-left="0"
     fit-margin-right="0"
     fit-margin-bottom="0"
     inkscape:window-width="1366"
     inkscape:window-height="724"
     inkscape:window-x="0"
     inkscape:window-y="22"
     inkscape:window-maximized="0" />
  <metadata
     id="metadata844">
    <rdf:RDF>
      <cc:Work
         rdf:about="">
        <dc:format>image/svg+xml</dc:format>
        <dc:type
           rdf:resource="http://purl.org/dc/dcmitype/StillImage" />
        <dc:title></dc:title>
      </cc:Work>
    </rdf:RDF>
  </metadata>
  <g
     inkscape:label="Layer 1"
     inkscape:groupmode="layer"
     id="layer1"
     transform="translate(-48.348137,-77.037182)">
    <circle
       style="fill:#800000;fill-opacity:1;stroke-width:1.26499999;stroke-linecap:round;stroke-linejoin:miter;stroke-miterlimit:4;stroke-dasharray:none;paint-order:fill markers stroke"
       id="path1396"
       cx="118.40041"
       cy="126.74931"
       r="49.712132" />
    <g
       aria-label="BOOM!"
       style="font-style:normal;font-weight:normal;font-size:46.79597473px;line-height:1.25;font-family:sans-serif;letter-spacing:0px;word-spacing:0px;fill:#ff0000;fill-opacity:1;stroke:none;stroke-width:0.26458335"
       id="text1394">
      <path
         d="m 73.802588,118.32646 q 0.205646,1.00538 0.114248,2.21641 -0.0914,1.21103 -0.502691,2.39921 -0.411293,1.18818 -1.14248,2.26211 -0.731187,1.07393 -1.782269,1.78227 -0.571239,0.38844 -1.11963,0.66263 -0.525541,0.25135 -1.073931,0.457 -0.54839,0.18279 -1.14248,0.34274 -0.594089,0.15995 -1.256728,0.3199 1.690871,0.98253 2.719102,2.05646 1.028232,1.07393 1.439525,2.6277 0.205646,0.68549 0.205646,1.48523 0,0.79973 -0.182796,1.62232 -0.182797,0.79973 -0.57124,1.57662 -0.388443,0.75404 -0.982533,1.34813 -1.005382,1.00538 -2.444907,1.57662 -1.416675,0.57124 -2.947598,0.86828 -1.530923,0.2742 -2.970447,0.3656 -1.439525,0.0685 -2.444907,0.0914 h -8.477201 l -0.891134,-32.51497 8.934192,-0.47984 q 0.822586,0 1.759419,0.0229 0.959683,0 2.056464,0.0914 1.11963,0.0914 2.399208,0.29705 1.279577,0.20565 2.764801,0.57124 1.462374,0.36559 2.764801,1.11963 1.302427,0.75404 2.30781,1.80512 1.005382,1.05108 1.645171,2.33066 0.639788,1.27957 0.822585,2.69625 z m -16.177515,19.23936 q 0.342744,0.0229 0.982533,0.0685 0.662638,0.0229 1.416675,-0.0228 0.776886,-0.0457 1.553773,-0.1828 0.799735,-0.1371 1.393825,-0.47984 0.616939,-0.34274 0.959683,-0.89113 0.365594,-0.57124 0.274195,-1.43953 -0.137097,-1.23388 -0.868284,-1.82797 -0.708338,-0.61693 -1.71372,-0.82258 -0.982533,-0.2285 -2.079314,-0.15995 -1.09678,0.0457 -1.987914,0.1371 z m -0.434142,-12.15599 q 0.251346,0 1.005382,0.0686 0.754037,0.0686 1.71372,0.0457 0.982533,-0.0457 2.033614,-0.22849 1.051082,-0.20565 1.896517,-0.68549 0.868284,-0.50269 1.370976,-1.34813 0.502691,-0.84543 0.411292,-2.21641 -0.114248,-1.25673 -0.776886,-2.03361 -0.662638,-0.77689 -1.805118,-1.16533 -1.11963,-0.38845 -2.650553,-0.45699 -1.508074,-0.0686 -3.336042,0.0914 z"
         style="font-style:normal;font-variant:normal;font-weight:normal;font-stretch:normal;font-family:'TF2 Build';-inkscape-font-specification:'TF2 Build';fill:#ff0000;stroke-width:0.26458335"
         id="path1398" />
      <path
         d="m 93.430393,109.02667 q 2.490606,0 4.752716,0.61694 2.262111,0.59409 4.181481,1.69087 1.94221,1.09678 3.51883,2.65056 1.57663,1.55377 2.67341,3.42744 1.11963,1.87366 1.71372,4.04437 0.61693,2.17072 0.61693,4.50137 0,2.30781 -0.61693,4.45568 -0.59409,2.12501 -1.71372,3.97583 -1.09678,1.85081 -2.67341,3.38174 -1.57662,1.50807 -3.51883,2.582 -1.91937,1.07393 -4.181481,1.66802 -2.26211,0.59409 -4.752716,0.59409 -2.353509,0 -4.54707,-0.59409 -2.170712,-0.59409 -4.067228,-1.66802 -1.873667,-1.07393 -3.42744,-2.582 -1.530923,-1.53093 -2.627704,-3.38174 -1.09678,-1.85082 -1.713719,-3.97583 -0.59409,-2.12502 -0.59409,-4.45568 0,-2.33065 0.59409,-4.50137 0.616939,-2.17071 1.713719,-4.04437 1.096781,-1.87367 2.627704,-3.42744 1.553773,-1.55378 3.42744,-2.65056 1.896516,-1.09678 4.067228,-1.69087 2.193561,-0.61694 4.54707,-0.61694 z m 0,27.05393 q 2.125012,0 3.93013,-0.75404 1.805119,-0.75404 3.107547,-2.01077 1.32528,-1.27957 2.05646,-2.92474 0.75404,-1.66802 0.75404,-3.49599 0,-2.01077 -0.75404,-3.67879 -0.73118,-1.69087 -2.05646,-2.87905 -1.302428,-1.21102 -3.107547,-1.87366 -1.805118,-0.68549 -3.93013,-0.68549 -1.942216,0 -3.655936,0.68549 -1.69087,0.66264 -2.970447,1.87366 -1.256728,1.18818 -1.987915,2.87905 -0.731187,1.66802 -0.731187,3.67879 0,1.82797 0.731187,3.49599 0.731187,1.64517 1.987915,2.92474 1.279577,1.25673 2.970447,2.01077 1.71372,0.75404 3.655936,0.75404 z"
         style="font-style:normal;font-variant:normal;font-weight:normal;font-stretch:normal;font-family:'TF2 Build';-inkscape-font-specification:'TF2 Build';fill:#ff0000;stroke-width:0.26458335"
         id="path1400" />
      <path
         d="m 129.89835,109.02667 q 2.4906,0 4.75271,0.61694 2.26211,0.59409 4.18148,1.69087 1.94222,1.09678 3.51884,2.65056 1.57662,1.55377 2.6734,3.42744 1.11963,1.87366 1.71372,4.04437 0.61694,2.17072 0.61694,4.50137 0,2.30781 -0.61694,4.45568 -0.59409,2.12501 -1.71372,3.97583 -1.09678,1.85081 -2.6734,3.38174 -1.57662,1.50807 -3.51884,2.582 -1.91937,1.07393 -4.18148,1.66802 -2.26211,0.59409 -4.75271,0.59409 -2.35351,0 -4.54707,-0.59409 -2.17071,-0.59409 -4.06723,-1.66802 -1.87367,-1.07393 -3.42744,-2.582 -1.53092,-1.53093 -2.6277,-3.38174 -1.09678,-1.85082 -1.71372,-3.97583 -0.59409,-2.12502 -0.59409,-4.45568 0,-2.33065 0.59409,-4.50137 0.61694,-2.17071 1.71372,-4.04437 1.09678,-1.87367 2.6277,-3.42744 1.55377,-1.55378 3.42744,-2.65056 1.89652,-1.09678 4.06723,-1.69087 2.19356,-0.61694 4.54707,-0.61694 z m 0,27.05393 q 2.12501,0 3.93013,-0.75404 1.80512,-0.75404 3.10754,-2.01077 1.32528,-1.27957 2.05647,-2.92474 0.75403,-1.66802 0.75403,-3.49599 0,-2.01077 -0.75403,-3.67879 -0.73119,-1.69087 -2.05647,-2.87905 -1.30242,-1.21102 -3.10754,-1.87366 -1.80512,-0.68549 -3.93013,-0.68549 -1.94222,0 -3.65594,0.68549 -1.69087,0.66264 -2.97045,1.87366 -1.25672,1.18818 -1.98791,2.87905 -0.73119,1.66802 -0.73119,3.67879 0,1.82797 0.73119,3.49599 0.73119,1.64517 1.98791,2.92474 1.27958,1.25673 2.97045,2.01077 1.71372,0.75404 3.65594,0.75404 z"
         style="font-style:normal;font-variant:normal;font-weight:normal;font-stretch:normal;font-family:'TF2 Build';-inkscape-font-specification:'TF2 Build';fill:#ff0000;stroke-width:0.26458335"
         id="path1402" />
      <path
         d="m 167.25744,133.40719 9.09414,-22.84959 6.16939,-0.1828 0.52554,31.12115 -7.35757,0.0914 -0.0914,-16.88585 -7.40327,17.86838 -3.31319,-0.36559 -7.15192,-15.62913 0.50269,15.76623 h -8.31726 l -0.43414,-32.67493 h 7.01483 z"
         style="font-style:normal;font-variant:normal;font-weight:normal;font-stretch:normal;font-family:'TF2 Build';-inkscape-font-specification:'TF2 Build';fill:#ff0000;stroke-width:0.26458335"
         id="path1404" />
      <path
         d="m 192.5748,131.62492 -5.55245,-0.31989 0.84543,-21.25012 6.62638,0.31989 z m -7.19763,7.33473 q 0,-0.68549 0.25135,-1.34813 0.2742,-0.68549 0.75404,-1.21103 0.50269,-0.52554 1.18818,-0.84543 0.70833,-0.34275 1.59947,-0.3656 0.95968,-0.0229 1.69087,0.3199 0.75403,0.34274 1.25673,0.89113 0.50269,0.54839 0.73118,1.23388 0.2285,0.66264 0.20565,1.32528 -0.0457,0.75403 -0.38844,1.37097 -0.3199,0.61694 -0.86829,1.07393 -0.52554,0.43414 -1.21103,0.68549 -0.68549,0.25135 -1.41667,0.25135 -0.70834,0 -1.39383,-0.25135 -0.66264,-0.25135 -1.21103,-0.68549 -0.52554,-0.45699 -0.86828,-1.07393 -0.3199,-0.61694 -0.3199,-1.37097 z"
         style="font-style:normal;font-variant:normal;font-weight:normal;font-stretch:normal;font-family:'TF2 Build';-inkscape-font-specification:'TF2 Build';fill:#ff0000;stroke-width:0.26458335"
         id="path1406" />
    </g>
  </g>
</svg>
