<?xml version="1.0" encoding="UTF-8" standalone="no"?>
<!-- Created with Inkscape (http://www.inkscape.org/) -->

<svg
   xmlns:dc="http://purl.org/dc/elements/1.1/"
   xmlns:cc="http://creativecommons.org/ns#"
   xmlns:rdf="http://www.w3.org/1999/02/22-rdf-syntax-ns#"
   xmlns:svg="http://www.w3.org/2000/svg"
   xmlns="http://www.w3.org/2000/svg"
   xmlns:sodipodi="http://sodipodi.sourceforge.net/DTD/sodipodi-0.dtd"
   xmlns:inkscape="http://www.inkscape.org/namespaces/inkscape"
   width="397.14285"
   height="765.71429"
   viewBox="0 0 105.07738 202.59525"
   version="1.1"
   id="svg8"
   inkscape:version="0.92.4 5da689c313, 2019-01-14"
   sodipodi:docname="node_unknown.svg">
  <defs
     id="defs2" />
  <sodipodi:namedview
     id="base"
     pagecolor="#ffffff"
     bordercolor="#666666"
     borderopacity="1.0"
     inkscape:pageopacity="0.0"
     inkscape:pageshadow="2"
     inkscape:zoom="0.49497475"
     inkscape:cx="172.42523"
     inkscape:cy="410.89027"
     inkscape:document-units="mm"
     inkscape:current-layer="text19"
     showgrid="false"
     inkscape:snap-bbox="true"
     inkscape:snap-bbox-edge-midpoints="true"
     inkscape:window-width="1366"
     inkscape:window-height="724"
     inkscape:window-x="0"
     inkscape:window-y="22"
     inkscape:window-maximized="0"
     fit-margin-top="0"
     fit-margin-left="0"
     fit-margin-right="0"
     fit-margin-bottom="0"
     units="px" />
  <metadata
     id="metadata5">
    <rdf:RDF>
      <cc:Work
         rdf:about="">
        <dc:format>image/svg+xml</dc:format>
        <dc:type
           rdf:resource="http://purl.org/dc/dcmitype/StillImage" />
        <dc:title />
      </cc:Work>
    </rdf:RDF>
  </metadata>
  <g
     inkscape:label="Layer 1"
     inkscape:groupmode="layer"
     id="layer1"
     transform="translate(-2.4398804e-8,9.0906881e-6)">
    <g
       id="g44"
       transform="translate(-1.5119035,-3.690475)">
      <rect
         rx="4.4099426"
         ry="4.4099426"
         y="3.690475"
         x="1.5119035"
         height="202.59525"
         width="105.07738"
         id="rect10"
         style="fill:#000000;stroke-width:0.26458332" />
      <rect
         transform="scale(-1,1)"
         rx="4.4099426"
         ry="4.4099426"
         y="3.690475"
         x="-106.58928"
         height="17.00894"
         width="105.07737"
         id="rect15"
         style="fill:#4d4d4d;stroke-width:0.07666311" />
      <g
         aria-label="N"
         style="font-style:normal;font-weight:normal;font-size:72.72400665px;line-height:1.25;font-family:sans-serif;letter-spacing:0px;word-spacing:0px;fill:#f2f2f2;fill-opacity:1;stroke:none;stroke-width:1.81810009"
         id="text19">
        <g
           aria-label="?"
           style="font-style:normal;font-variant:normal;font-weight:bold;font-stretch:normal;font-size:162.76457214px;line-height:1.25;font-family:'PragmataPro Liga';-inkscape-font-specification:'PragmataPro Liga Bold';text-align:center;letter-spacing:0px;word-spacing:0px;text-anchor:middle;fill:#f2f2f2;fill-opacity:1;stroke:none;stroke-width:7.39805746"
           id="text22">
          <path
             d="m 85.602125,72.562331 q 0,9.139613 -5.086393,16.769202 L 68.197125,107.37233 q -2.463722,3.57637 -2.463722,8.66277 v 4.37111 h -21.29927 v -4.45059 q 0,-8.98066 5.404292,-17.007626 L 60.96491,82.735117 q 3.337945,-5.165868 3.337945,-10.967534 0,-5.245343 -2.781621,-8.106439 -2.781621,-2.861096 -7.073265,-2.861096 -9.775412,0 -15.894978,12.874932 L 22.499063,62.707445 q 11.20596,-20.107147 32.028381,-20.107147 13.749155,0 22.411918,8.821713 8.662763,8.821713 8.662763,21.14032 z M 68.753449,153.78567 q 0,5.88114 -3.814795,9.61646 -3.73532,3.73532 -9.695936,3.73532 -5.801667,0 -9.616462,-3.73532 -3.73532,-3.73532 -3.73532,-9.61646 0,-5.88114 3.73532,-9.61646 3.814795,-3.8148 9.616462,-3.8148 5.960616,0 9.695936,3.8148 3.814795,3.73532 3.814795,9.61646 z"
             style="font-style:normal;font-variant:normal;font-weight:bold;font-stretch:normal;font-family:'PragmataPro Liga';-inkscape-font-specification:'PragmataPro Liga Bold';text-align:center;text-anchor:middle;fill:#f2f2f2;fill-opacity:1;stroke-width:7.39805746"
             id="path875" />
        </g>
      </g>
    </g>
  </g>
</svg>
